/* XPM */
static char *_23c28755900496abaf32277eb215d77JCUqqouPkU8eGQtH[] = {
/* columns rows colors chars-per-pixel */
"32 32 5 1 ",
"  c black",
". c #5B295C",
"X c #A349A4",
"o c #D05DD1",
"O c white",
/* pixels */
"                                ",
"                                ",
"                            O   ",
"                            O   ",
"                          OOOOO ",
"                ..............  ",
"              O ............... ",
"    O        OO................ ",
"    O        .....XXXXXXXX..... ",
"  OOOOO     .....XXXXXXX......  ",
"    O      .....Xoooooo.......  ",
"    O    .....XXXoXXXo........  ",
"        .....XXXooXX.....XX...  ",
"      ......XXXooXX....oooX...  ",
"     .....XXXoooX.....XoooX...  ",
"    .....XXXooXX.....XXooXX...  ",
"  ..................XXXooXX...  ",
"  ................XXXXXooXX...  ",
" .................XXXXooXXX...  ",
" ...XXXXXoooXX...XXXXoooXX....  ",
" ...XXXXXoooXX...XXXoooXX.....  ",
" ...XXXXoooXXX...XXXoXXX.....   ",
" ...XXXXoooXXX...XXooXX....     ",
" ...XXXooooXXX...oooX.....      ",
" ...XXXooooXXX...XXX.....       ",
" ...XXXXXXXXXX...XX.....  .     ",
" ...XXXXXXXXXX...X.....    .    ",
" ...XXXXXXXXXX.......      O    ",
" ...................      OOO   ",
" ..................        O    ",
"  ................              ",
"                                "
};
