/* XPM */
static char *_105e535d08a46e3f2d3007cf29a5506KkeizOZg56yndSNv[] = {
/* columns rows colors chars-per-pixel */
"32 32 4 1 ",
"  c black",
". c #EFE4B0",
"X c #C3C3C3",
"o c white",
/* pixels */
"                                ",
"                                ",
"                            o   ",
"                            o   ",
"                          ooooo ",
"                            o   ",
"              o             o   ",
"    o        ooo                ",
"    o         o                 ",
"  ooooo                         ",
"    o                           ",
"    o                           ",
"                                ",
"                                ",
"                     o          ",
"                     o          ",
"    X              ooooo        ",
"   XXX               o          ",
"    X                o          ",
"                                ",
"            o                   ",
"           ooo                  ",
"            o                   ",
"                                ",
"                                ",
"                                ",
"       .                        ",
"       .                   o    ",
"     .....                ooo   ",
"       .                   o    ",
"       .                        ",
"                                "
};
