/* XPM */
static char *result[] = {
/* columns rows colors chars-per-pixel */
"40 40 163 2 ",
"   c black",
".  c #010101",
"X  c #020202",
"o  c #040404",
"O  c gray2",
"+  c #060606",
"@  c gray3",
"#  c gray4",
"$  c #0C0C0C",
"%  c #0E0E0E",
"&  c #131313",
"*  c #161616",
"=  c #191919",
"-  c gray10",
";  c #1B1B1B",
":  c #1D1D1D",
">  c #1E1E1E",
",  c #202020",
"<  c gray13",
"1  c #232323",
"2  c gray14",
"3  c gray15",
"4  c #272727",
"5  c #282828",
"6  c gray16",
"7  c gray17",
"8  c #2D2D2D",
"9  c gray18",
"0  c #2F2F2F",
"q  c gray19",
"w  c #323232",
"e  c gray20",
"r  c #373737",
"t  c gray22",
"y  c #393939",
"u  c gray23",
"i  c #3C3C3C",
"p  c gray26",
"a  c gray27",
"s  c gray28",
"d  c #484848",
"f  c gray30",
"g  c #505050",
"h  c gray32",
"j  c gray33",
"k  c gray34",
"l  c #585858",
"z  c gray35",
"x  c #5A5A5A",
"c  c gray36",
"v  c #5D5D5D",
"b  c #5F5F5F",
"n  c #606060",
"m  c gray39",
"M  c #646464",
"N  c gray40",
"B  c #676767",
"V  c DimGray",
"C  c #6A6A6A",
"Z  c gray42",
"A  c gray43",
"S  c #6F6F6F",
"D  c #727272",
"F  c #747474",
"G  c #767676",
"H  c #797979",
"J  c gray48",
"K  c #7B7B7B",
"L  c gray49",
"P  c gray50",
"I  c #818181",
"U  c gray51",
"Y  c gray52",
"T  c gray53",
"R  c #888888",
"E  c gray54",
"W  c #8B8B8B",
"Q  c gray55",
"!  c #8E8E8E",
"~  c #909090",
"^  c gray57",
"/  c #939393",
"(  c gray59",
")  c #979797",
"_  c gray60",
"`  c #9B9B9B",
"'  c #9D9D9D",
"]  c gray62",
"[  c gray63",
"{  c gray64",
"}  c #A5A5A5",
"|  c gray65",
" . c #A7A7A7",
".. c gray66",
"X. c #AAAAAA",
"o. c gray67",
"O. c gray68",
"+. c #AFAFAF",
"@. c gray69",
"#. c #B1B1B1",
"$. c #B2B2B2",
"%. c gray70",
"&. c #B4B4B4",
"*. c gray71",
"=. c #B6B6B6",
"-. c #B7B7B7",
";. c gray72",
":. c #BBBBBB",
">. c #BCBCBC",
",. c gray74",
"<. c gray",
"1. c gray75",
"2. c #C0C0C0",
"3. c gray76",
"4. c gray77",
"5. c #C5C5C5",
"6. c #C6C6C6",
"7. c gray78",
"8. c #C8C8C8",
"9. c gray79",
"0. c #CBCBCB",
"q. c gray80",
"w. c #CDCDCD",
"e. c #CECECE",
"r. c #D0D0D0",
"t. c gray82",
"y. c #D2D2D2",
"u. c LightGray",
"i. c gray83",
"p. c #D5D5D5",
"a. c gray84",
"s. c gray85",
"d. c #DADADA",
"f. c gainsboro",
"g. c #DDDDDD",
"h. c gray87",
"j. c #DFDFDF",
"k. c gray88",
"l. c #E1E1E1",
"z. c gray89",
"x. c #E4E4E4",
"c. c gray90",
"v. c #E9E9E9",
"b. c #EAEAEA",
"n. c gray92",
"m. c #ECECEC",
"M. c #EFEFEF",
"N. c gray94",
"B. c #F1F1F1",
"V. c gray95",
"C. c #F3F3F3",
"Z. c #F4F4F4",
"A. c gray96",
"S. c #F6F6F6",
"D. c gray97",
"F. c #F8F8F8",
"G. c #F9F9F9",
"H. c gray98",
"J. c #FBFBFB",
"K. c gray99",
"L. c #FDFDFD",
"P. c #FEFEFE",
"I. c white",
/* pixels */
"I.I.I.I.I.I.I.I.I.I.I.I.I.I.I.I.I.I.I.I.I.I.I.I.I.I.I.I.I.I.I.I.I.I.I.I.I.I.I.I.",
"I.I.I.I.I.I.I.I.I.I.I.I.I.I.I.I.I.I.I.I.I.I.I.I.I.I.I.I.I.I.I.I.I.I.I.I.I.I.I.I.",
"I.I.I.I.I.I.I.I.I.I.I.I.I.I.I.I.I.I.I.I.I.I.I.I.I.I.I.I.I.I.I.I.I.I.I.I.I.I.I.I.",
"I.I.I.I.I.I.I.I.I.I.I.I.I.I.I.I.I.I.I.I.I.I.I.I.I.I.I.I.I.I.I.I.I.I.I.I.I.I.I.I.",
"I.I.I.e e I.I.t 9 I.D   +.   .J.  C I.e e I.I.I.+ b I.I.+ b I.I.I.I.I.e e I.I.I.",
"I.I.I.e e I.I.p 2 I.}   4   s.C.  D I.e e I.I.I.& h I.I.& h I.I.I.I.I.e e I.I.I.",
"I.I.I.e e I.I.f = I.F.r   M I.n.  J I.e e I.I.I., a I.I., a I.I.I.I.I.e e I.I.I.",
"I.I.I.e e I.I.k % I.I.G.s.P.I.s.  W I.e e I.I.I.8 t I.I.q w I.I.I.I.I.e e I.I.I.",
"I.I.I.e e I.I.S   V.I.I.I.I.I.2.  { I.e e I.I.I.y 7 I.I.j $ P.I.I.I.I.e e I.I.I.",
"I.I.I.e e I.I.~   y.I.I.I.I.I.i.M e.I.e e I.I.I.d - I.I.L   l.I.I.I.I.e e I.I.I.",
"I.I.I.e e I.I.#.  $.I.I.I.I.I.I.I.I.I.e e I.I.I.C . Z.I. .  %.I.I.I.I.e e I.I.I.",
"I.I.I.e e I.I.m.8.S.I.I.I.I.I.I.I.I.I.e e I.I.I./   q.I.c.. A I.I.I.I.e e I.I.I.",
"I.I.I.e 6 q.q.q.q.q.q.q.q.q.q.q.q.q.q.6 e I.I.I.:.  { I.I.0 3 I.I.I.I.e e I.I.I.",
"I.I.I.e                                 e I.I.I.x.  K I.I.H   w.I.I.I.e e I.I.I.",
"I.I.I.e > _ _ _ _ _ _ _ _ _ _ _ _ _ _ > e I.I.I.P.% g I.I.j.o c I.I.I.e e I.I.I.",
"I.I.I.e e I.I.I.I.I.I.I.I.I.I.I.I.I.I.e e I.I.I.I.p * P.I.I.l N I.I.I.e e I.I.I.",
"I.I.I.e e I.I.h.r.J.I.I.I.I.I.I.I.I.I.e e I.I.I.I.U   p.I.I.J.I.I.I.I.e e I.I.I.",
"I.I.I.e e I.I.H   v.I.I.I.I.I.I.I.I.I.e e I.I.I.I.5.  Q I.I.I.I.I.I.I.e e I.I.I.",
"I.I.I.e e I.I.x # P.I.I.I.I.I.I.I.I.I.e e I.I.I.I.L.= u I.I.I.I.I.I.I.e e I.I.I.",
"I.I.I.e e I.I.u 5 I.I.I.I.I.I.I.I.I.I.e e I.I.I.I.I.V X h.I.I.I.I.I.I.e e I.I.I.",
"I.I.I.e e I.I.: s I.I.I.I.I.I.x.8.I.I.e e I.I.I.I.I.0.  K I.I.I.I.I.I.e e I.I.I.",
"I.I.I.e e I.P.+ n I.I.I.I.I.I.v @ I.I.e e I.I.I.I.I.I.e * Z.I.I.I.I.I.e e I.I.I.",
"I.I.I.e e I.N.  F I.I.I.I.I.I.S   A.I.e e I.I.I.I.I.I.o.  ( I.I.I.I.I.e e I.I.I.",
"I.I.I.e e I.f.  R I.I.I.I.I.I.I   z.I.e e I.I.I.I.I.I.L.[ H.I.I.I.I.I.e e I.I.I.",
"I.I.I.e e I.6.  ' I.I.I.I.I.I./   t.I.e e I.I.I.I.I.I.I.I.I.I.I.I.I.I.e e I.I.I.",
"I.I.I.e e I.&.  @.I.I.I.I.I.I.}   1.I.e > _ _ _ _ _ _ _ _ _ _ _ _ _ _ > e I.I.I.",
"I.I.I.e e I...  >.I.I.( ( I.I.-.  O.I.e                                 e I.I.I.",
"I.I.I.e e I.'   8.I.=.    =.I.9.  ` I.e 6 q.q.q.q.q.q.q.q.q.q.q.q.q.q.6 e I.I.I.",
"I.I.I.e e I.^   u.I.m O O m I.i.  ^ I.e e I.I.I.I.I.K.g.g.K.I.I.I.I.I.e e I.I.I.",
"I.I.I.e e I.Y   j.I.< u u < I.d.  W I.e e I.I.I.P.( ;     ; ) P.I.I.I.e e I.I.I.",
"I.I.I.e e I.K   b.D.. C C . D.k.  Y I.e e I.I.I.C   8 R T 8   Z I.I.I.e e I.I.I.",
"I.I.I.e e I.G   M.s.  E R   d.c.  P I.e e I.I.|   z H.I.I.H.l    .I.I.e e I.I.I.",
"I.I.I.e e I.D   V.>.  ..|   ,.n.  J I.e e I.L.< < S.I.x.c.I.A., 1 L.I.e e I.I.I.",
"I.I.I.e e I.S   S.@.  *.&.  #.B.  F I.e e I.3.  ! I.^ X X ^ I.Q   4.I.e e I.I.I.",
"I.I.I.e e I.Z   G. .  <.<.  ..S.  A I.e e I.R   a.z.O i i O x.i.  E I.e e I.I.I.",
"I.I.I.e e I.B   L.]   8.7.  ] K.  V I.e e I.S   S.X.  ;.-.  o.A.  S I.e e I.I.I.",
"I.I.I.I.I.I.I.I.I.I.I.I.I.I.I.I.I.I.I.I.I.I.I.I.I.I.I.I.I.I.I.I.I.I.I.I.I.I.I.I.",
"I.I.I.I.I.I.I.I.I.I.I.I.I.I.I.I.I.I.I.I.I.I.I.I.I.I.I.I.I.I.I.I.I.I.I.I.I.I.I.I.",
"I.I.I.I.I.I.I.I.I.I.I.I.I.I.I.I.I.I.I.I.I.I.I.I.I.I.I.I.I.I.I.I.I.I.I.I.I.I.I.I.",
"I.I.I.I.I.I.I.I.I.I.I.I.I.I.I.I.I.I.I.I.I.I.I.I.I.I.I.I.I.I.I.I.I.I.I.I.I.I.I.I."
};
