/* XPM */
static char *result[] = {
/* columns rows colors chars-per-pixel */
"40 40 245 2 ",
"   c #373737",
".  c #373A3E",
"X  c #373B3F",
"o  c gray22",
"O  c #383839",
"+  c #383939",
"@  c #393939",
"#  c #38393A",
"$  c #393A3A",
"%  c #3A3A3B",
"&  c #3A3C3C",
"*  c #3B3C3C",
"=  c #3B3C3D",
"-  c #3B3D3D",
";  c #383C3F",
":  c #3C3C3D",
">  c #3C3D3D",
",  c #3C3D3E",
"<  c #3D3D3E",
"1  c #373B40",
"2  c #373C40",
"3  c #373C41",
"4  c #363C42",
"5  c #343D46",
"6  c #343D47",
"7  c #383C40",
"8  c #383C41",
"9  c #323D49",
"0  c #313D4B",
"q  c #303E4C",
"w  c #303E4D",
"e  c #2F3F50",
"r  c #2E3F51",
"t  c #2D3F52",
"y  c #2C3F53",
"u  c #2D3F53",
"i  c #2C3F54",
"p  c #2D3F54",
"a  c #3E4041",
"s  c #3F4142",
"d  c #3F4143",
"f  c #3A4545",
"g  c #3C4646",
"h  c #3F4F4F",
"j  c #2C4055",
"k  c #2D4056",
"l  c #2C4057",
"z  c #2B4159",
"x  c #2A415A",
"c  c #29415C",
"v  c #29425E",
"b  c #28425F",
"n  c #3F5050",
"m  c #264466",
"M  c #264567",
"N  c #24466B",
"B  c #23476E",
"V  c #23476F",
"C  c #24466C",
"Z  c #24476E",
"A  c #224771",
"S  c #234870",
"D  c #224871",
"F  c #234871",
"G  c #224872",
"H  c gray25",
"J  c #414141",
"K  c #404143",
"L  c #404243",
"P  c #414243",
"I  c gray26",
"U  c #424343",
"Y  c #424446",
"T  c #434547",
"R  c #444545",
"E  c #464747",
"W  c #474748",
"Q  c #464849",
"!  c #46494A",
"~  c #47494A",
"^  c #46494B",
"/  c #46494C",
"(  c #474A4C",
")  c #494A4A",
"_  c #484B4E",
"`  c #484C4F",
"'  c #494D4F",
"]  c #4C4D4D",
"[  c #4D4E4E",
"{  c #4C4E50",
"}  c #4C4F50",
"|  c #4D4F51",
" . c #4D5051",
".. c #4D5053",
"X. c #4E5152",
"o. c #4F5153",
"O. c #4D5154",
"+. c #4F5254",
"@. c #505356",
"#. c #525455",
"$. c #515456",
"%. c #515557",
"&. c #525658",
"*. c #525759",
"=. c #585959",
"-. c #595A5A",
";. c #5E5F5F",
":. c #416362",
">. c #5A6063",
",. c #5F6060",
"<. c gray39",
"1. c #616669",
"2. c #61676A",
"3. c #60686B",
"4. c #676868",
"5. c #63686C",
"6. c #63696D",
"7. c #646A6E",
"8. c #6A6A6B",
"9. c #6E6F6F",
"0. c #676D71",
"q. c #686E72",
"w. c #696E73",
"e. c #697073",
"r. c #6B7277",
"t. c #6C7276",
"y. c #6E777C",
"u. c #707171",
"i. c #737A7F",
"p. c gray48",
"a. c #3D5C8B",
"s. c #3F68A5",
"d. c #737B80",
"f. c #737E83",
"g. c #747C81",
"h. c #767F84",
"j. c #406FB5",
"k. c #758085",
"l. c #778085",
"z. c #768287",
"x. c #788085",
"c. c #7B8184",
"v. c #788187",
"b. c #7D8286",
"n. c #778388",
"m. c #7A8388",
"M. c #7B8489",
"N. c #7F8488",
"B. c #7C858B",
"V. c #7D858B",
"C. c #7D868C",
"Z. c #54B9B6",
"A. c #55BAB7",
"S. c gray51",
"D. c gray52",
"F. c gray53",
"G. c #888989",
"H. c #8A8B8B",
"J. c #8B8C8C",
"K. c #8C8D8D",
"L. c #828F96",
"P. c #839097",
"I. c #879197",
"U. c #8A9095",
"Y. c #839198",
"T. c #849299",
"R. c #899399",
"E. c #89979F",
"W. c #929292",
"Q. c gray58",
"!. c #959595",
"~. c gray59",
"^. c #979797",
"/. c #9A9A9A",
"(. c #9B9B9B",
"). c #9F9F9F",
"_. c #8A99A1",
"`. c #8B9AA2",
"'. c #8C9BA3",
"]. c #919CA4",
"[. c #929DA5",
"{. c #939EA6",
"}. c #949FA7",
"|. c #95A1A8",
" X c #96A2A9",
".X c #98A3AB",
"XX c #9FACB5",
"oX c #A0A0A0",
"OX c #A1AEB7",
"+X c #A6B4BD",
"@X c #A7B5BE",
"#X c gray73",
"$X c #BCBCBC",
"%X c #AAB8C2",
"&X c #AEBDC7",
"*X c #AFBEC8",
"=X c #B0BFC9",
"-X c #B1BFC9",
";X c #B1C0CA",
":X c #B6C6D0",
">X c #B7C6D1",
",X c #B2C8D3",
"<X c #B8C8D3",
"1X c #B9C9D4",
"2X c #BCCDD8",
"3X c #BFCFDA",
"4X c #BFCFDB",
"5X c #C1C1C1",
"6X c #C6C6C6",
"7X c gray78",
"8X c #CDCDCD",
"9X c #CECECE",
"0X c gray81",
"qX c #C0D0DB",
"wX c #D0D0D0",
"eX c gray82",
"rX c #D2D2D2",
"tX c LightGray",
"yX c gray83",
"uX c #D5D5D5",
"iX c #C4D5E0",
"pX c #C4D5E1",
"aX c #C5D6E2",
"sX c #C6D7E3",
"dX c #C7D8E4",
"fX c #CADCE8",
"gX c #CDDFEB",
"hX c #CDDFEC",
"jX c #CFE2EE",
"kX c #D7E3EB",
"lX c #D0E3EF",
"zX c #D8E4EC",
"xX c #D9E5ED",
"cX c #D4E7F4",
"vX c gray91",
"bX c #EFEFEF",
"nX c #E2EFF8",
"mX c gray96",
"MX c #F6F6F6",
"NX c #F8F8F8",
"BX c #FBFBFB",
"VX c gray99",
"CX c #FDFDFD",
"ZX c #FEFEFE",
"AX c white",
/* pixels */
"AXAXAXAXAXAXAXAXAXAXAXAXAXAXAXAXAXAX).) ) oXAXAXAXAXAXAXAXAXAXAXAXAXAXAXAXAXAXAX",
"AXAXAXAXAXAXAXAXAXAXAXAXAXAXAXAXAX#X+ n.z.+ $XAXAXAXAXAXAXAXAXAXAXAXAXAXAXAXAXAX",
"AXAXAXAXAXAXAXAXAXAXAXAXAXAXAXAXAXS.>.,X,X>.S.AXAXAXAXAXAXAXAXAXAXAXAXAXAXAXAXAX",
"AXAXAXAXAXAXAXAXAXAXAXAXAXAXAXAXAXp.3.,X,X3.p.AXAXAXAXAXAXAXAXAXAXAXAXAXAXAXAXAX",
"AXAXAXAXAXAXAXmX8X$XvXAXrX$X$X$X$X<.*.E.E.*.<.$X$X$X$X$X$X$X$X8XMXAXAXAXAXAXAXAX",
"AXAXAXAXnXkXc.*     U.nX#.                                      * b.zXnXAXAXAXAX",
"AXAXAXAXaXo.~  XpXcXcXcXcXcXcXcXcXcXcXcXcXcXcXcXcXcXcXcXcXcXcXpX|.~ +.sXAXAXAXAX",
"AXAXAXAX1.X.aXcXcXcXcXcXcXcXcXcXcXcXcXcXcXcXcXcXcXcXcXcXcXcXcXcXcXpX .2.AXAXAXAX",
"AXAXAX0X  -XcXcXcXcXcXcXcXcXcXcXcXcXcXcXcXcXcXcXcXcXcXcXcXcXcXcXcXcX*X  eXAXAXAX",
"AXAXAX~.$.cXcXcXjX%XfXcXcXcXcXcXcXcXcXcXcXcXcXcXcXcXcXcXcXfX%XjXcXcXcX+.^.AXAXAX",
"AXBXW.H q.cXcXcXr.  , l.2XcXcXcXcXcXcXcXcXcXcXcXcXcXcX2Xh.,   r.cXcXcXq.J Q.BXAX",
"AXG.< ! t.cXcXcXa i z 3 o 7.%XcXcXcXcXcXcXcXcXcXcX%X6.o 7 l k d cXcXcXt.! > H.AX",
"tX  '.3.t.cXcXcXO c G A b 6   @..XlXcXcXcXcXlX.X@.  5 v D G v % cXcXcXt.3.`.  uX",
"D.&.,X3.t.cXcXcX( r G G G G M w # T -XcXcX*XY # q m G G G G p _ cXcXcXt.3.,X%.F.",
"=.k.,X3.t.cXcXcXB.; Z G G G G G N . g.cXcXd.X C G G G G G V 1 C.cXcXcXt.3.,Xf.-.",
"J T.,X3.t.cXcXcXaXK 9 B G G G F e $ ;XcXcX-X$ y D G G G S 0 L sXcXcXcXt.3.,XP.I ",
"I Y.,X3.t.cXcXcXcX=Xs 2 t x u 2 , OXcXcXcXcXXX= 4 j c i 8 d -XcXcXcXcXt.3.,XL.I ",
"=.k.,X3.t.cXcXcXcXcXiXx./ = ' m.3XcXcXcXcXcXcX3Xv.` = ^ l.pXcXcXcXcXcXt.3.,Xf.-.",
"D.&.,X3.t.cXcXcXcXcXcXcXcXcXcXcXcXcXcXcXcXcXcXcXcXcXcXcXcXcXcXcXcXcXcXt.3.,X%.F.",
"yX  `.3.t.cXcXcXcXcXcXcXcX3Xi.t.t.t.t.t.t.t.t.t.t.i.qXcXcXcXcXcXcXcXcXt.3._.  uX",
"AXJ.> ! t.cXcXcXcXcXcXcXcXi.g :.:.f f :.:.f f :.:.g d.cXcXcXcXcXcXcXcXt.! > K.AX",
"AXVXQ.J q.cXcXcXcXcXcXcXcXt.:.A.A.:.:.A.A.:.:.A.A.:.t.cXcXcXcXcXcXcXcX0.J !.VXAX",
"AXAXAX~.$.cXcXcXcXcXcXcXcXm.n Z.A.:.:.A.A.:.:.A.Z.h M.cXcXcXcXcXcXcXcX+.^.AXAXAX",
"AXAXAXwX  -XcXcXcXcXcXcXcX<X& n :.f f :.:.f f :.n - 1XcXcXcXcXcXcXcX&X  rXAXAXAX",
"AXAXAXAX2. .pXcXcXcXcXcXcXcX<XM.t.t.t.t.t.t.t.t.M.1XcXcXcXcXcXcXcXpX} 5.AXAXAXAX",
"AXAXAXAXsX+.~ }.iXcXcXcXcXcXcXcXcXcXcXcXcXcXcXcXcXcXcXcXcXcXcXiX{.Q +.dXAXAXAXAX",
"AXAXAXAXnXzXb.:                                                 : N.xXnXAXAXAXAX",
"AXAXAXAXAXAXAXMX9X$X$X$X  y.E.E.E.E.E.E.E.E.E.E.E.E.y.  $X$X$X9XMXAXAXAXAXAXAXAX",
"AXAXAXAXAXAXVXuX5X$X$X$X  y.E.E.E.E.E.E.E.E.E.E.E.E.y.  $X$X$X5XuXVXAXAXAXAXAXAX",
"AXAXAXAXNX/.R                                                     R (.NXAXAXAXAX",
"AXAXAXbX;.U R.2XlXcXcXcXcXcXcXcXcXcXcXcXcXcXcXcXcXcXcXcXcXcXcXlX2XI.P ,.bXAXAXAX",
"AXAXCX4.| 3XcXcXcXcXcXcXcXcXcXcXcXcXcXcXcXcXcXcXcXcXcXcXcXcXcXcXcXcX4X{ 8.ZXAXAX",
"AXAX#X@ >XcXcXcXcXhX+XXXXXXXXXXXXXXXXXXXXXXXXXXXXXXXXXXXXX+XgXcXcXcXcX:X@ $XAXAX",
"AXAX9.e.cXcXcXcXhX..                                        O.gXcXcXcXcXq.u.AXAX",
"AXAXE [.cXcXcXcX+X  s.j.j.j.j.j.j.j.j.j.j.j.j.j.j.j.j.j.j.s.  @XcXcXcXcX].W AXAX",
"AXAXo XXcXcXcXcXXX  j.j.j.j.j.j.j.j.j.j.j.j.j.j.j.j.j.j.j.j.  XXcXcXcXcXXXo AXAX",
"AXAX  XXcXcXcXcXXX  j.j.j.j.j.j.j.j.j.j.j.j.j.j.j.j.j.j.j.j.  XXcXcXcXcXXX  AXAX",
"AXAX  XXcXcXcXcXXX  j.j.j.j.j.j.j.j.j.j.j.j.j.j.j.j.j.j.j.j.  XXcXcXcXcXXX  AXAX",
"AXAX] w.XXXXXXXXV.  a.a.a.a.a.a.a.a.a.a.a.a.a.a.a.a.a.a.a.a.  V.XXXXXXXXw.[ AXAX",
"AXAX6X]                                                                 [ 7XAXAX"
};
