/* XPM */
static char *result[] = {
/* columns rows colors chars-per-pixel */
"40 40 70 1 ",
"  c black",
". c #010101",
"X c #060606",
"o c #090909",
"O c #0C0C0C",
"+ c gray6",
"@ c #111111",
"# c gray8",
"$ c #181818",
"% c #191919",
"& c #1E1E1E",
"* c gray13",
"= c #222222",
"- c gray16",
"; c #2A2A2A",
": c gray19",
"> c #313131",
", c gray20",
"< c gray21",
"1 c #373737",
"2 c gray22",
"3 c gray23",
"4 c gray25",
"5 c #434343",
"6 c #444444",
"7 c gray29",
"8 c #4E4E4E",
"9 c #565656",
"0 c #606060",
"q c #676767",
"w c DimGray",
"e c gray43",
"r c #777777",
"t c gray49",
"y c gray50",
"u c gray51",
"i c #888888",
"p c gray54",
"a c #909090",
"s c gray60",
"d c #9F9F9F",
"f c gray63",
"g c gray64",
"h c #AAAAAA",
"j c #AEAEAE",
"k c #BBBBBB",
"l c gray75",
"z c #C1C1C1",
"x c gray76",
"c c #C3C3C3",
"v c gray80",
"b c #CDCDCD",
"n c #D7D7D7",
"m c #DDDDDD",
"M c gray87",
"N c #DFDFDF",
"B c gray90",
"V c #E7E7E7",
"C c gray91",
"Z c gray93",
"A c #EEEEEE",
"S c #F1F1F1",
"D c #F3F3F3",
"F c #F4F4F4",
"G c gray96",
"H c #F8F8F8",
"J c gray98",
"K c #FBFBFB",
"L c #FDFDFD",
"P c white",
/* pixels */
"PPPPPPPPPPPPPPPPPPPPPPPPPPPPPPPPPPPPPPPP",
"PPPPPPPPPPPPPPPPPPPPPPPPPPPPPPPPPPPPPPPP",
"PPPJPPxiiiiiiiiiiiiiiicPPPPPPPPPPPPPPPPP",
"PPPl<jLz9666666666663.yPPPPPPPPPPPPPPPPP",
"PPPl  -dJPPPPPPPPPPPP2yPPPPPPPPPPPPPPPPP",
"PPPl    $iFMeo      P4yPPPPPPPPPPPPPPPPP",
"PPPl      #uZV:     P4yPPPPPPPPPPPPPPPPP",
"PPPl        OV0     P4yPPPPPPPPPPPPPPPPP",
"PPPl         N0     P4yPPPPPPPPPPPPPPPPP",
"PPPl         N0     P4yPPPPPPPPPPPPPPPPP",
"PPPl         N0     P4yPGPPPPPPPPPPPPPPP",
"PPPl         N0     P8cC1PPPPPPPPPPPPPPP",
"PPPl         N0     PAn* SPPPPPPPPPPPPPP",
"PPPl         N0    >Pl@  @===========aPP",
"PPPl   ,ss   N0   7DgX               yPP",
"PPPl   yBs   N0  wKu.                yPP",
"PPPl   yl    N0.yKq                  yPP",
"PPPl   yl    N05Pt                   yPP",
"PPPl   yl    N0.yKq                  yPP",
"PPPl   yBs   N0  wKu.                yPP",
"PPPl   ,ss   N0   7DgX               yPP",
"PPPl         N0    >Pl@  @===========aPP",
"PPPl         N0     PAn* SPPPPPPPPPPPPPP",
"PPPl         N0     P8cC1PPPPPPPPPPPPPPP",
"PPPl         N0     P4yPGPPPPPPPPPPPPPPP",
"PPPl         N0     P4yPPPPy    yl P4yPP",
"PPPl         N0     P4yPPPPmkkkkmAkPvmPP",
"PPPl         N0     P4yPPPPPPPPPPPPPPPPP",
"PPPl         N0     P4yPPPPPPPPPPPPPPPPP",
"PPPl         N0     P4yPPPPPPPPPPPPPPPPP",
"PPPl         NPPPPPPP2yPPPPPPPPPPPPPPPPP",
"PPPl         Np666663.yPPPPPPPPPPPPPPPPP",
"PPPbX        NhrrrrrrrkPPPPPPPPPPPPPPPPP",
"PPPPCy+      NPPPPPPPPPPPPPPPPPPPPPPPPPP",
"PPPPPPSa%    NPPPPPPPPPPPPPPPPPPPPPPPPPP",
"PPPPPPPPHs&  NPPPPPPPPPPPPPPPPPPPPPPPPPP",
"PPPPPPPPPPJf;NPPPPPPPPPPPPPPPPPPPPPPPPPP",
"PPPPPPPPPPPPLKPPPPPPPPPPPPPPPPPPPPPPPPPP",
"PPPPPPPPPPPPPPPPPPPPPPPPPPPPPPPPPPPPPPPP",
"PPPPPPPPPPPPPPPPPPPPPPPPPPPPPPPPPPPPPPPP"
};
