/* XPM */
static char *result[] = {
/* columns rows colors chars-per-pixel */
"32 32 8 1 ",
"  c black",
". c #07EF21",
"X c #22B14C",
"o c #B5E61D",
"O c #D3EFB2",
"+ c #EFE4B0",
"@ c #C3C3C3",
"# c white",
/* pixels */
"                                ",
"              ooooo             ",
"             ooooooo        #   ",
"            oo.Oooooo       #   ",
"            o..OooOOo     ##### ",
"           oo.OOoXXOoo      #   ",
"           o..O.oXX.o.      #   ",
"    #     o..O..OXX.o..         ",
"    #     ..OO.XOoo.oo.         ",
"  #####   oXOO.XOOo.oo.         ",
"    #     oXOXXOOoo.oo.o        ",
"    #    ooXOX.OOooooo.o        ",
"         ooXX..Ooooooo.o        ",
"         oo.X.XOooXXoooo        ",
"         oo.X.OOooXXoooo        ",
"         o..X.Ooo.XX..oo        ",
"    @    o..X.ooo.XOO.oo        ",
"   @@@   o.XX.ooo.XX..oo        ",
"    @    o.XXoooo.XX.ooo        ",
"         o.XXXooo.Xo.ooo        ",
"          .oXOoooooO.ooo        ",
"          .oXO.ooooO.oo         ",
"          .oXO..ooOO.oo         ",
"          .oXXO..oOO.oo         ",
"          ..XXOO...o.o          ",
"           ..oXOOooo.o          ",
"       +    ooXXOoo.oo          ",
"       +    ooo.oo..o      #    ",
"     +++++   oo..o.o      ###   ",
"       +      ooooo        #    ",
"       +                        ",
"                                "
};
