/* XPM */
static char *result[] = {
/* columns rows colors chars-per-pixel */
"96 96 49 1 ",
"  c black",
". c #040304",
"X c #060507",
"o c #080709",
"O c #08070A",
"+ c #0D0C10",
"@ c #0E0C11",
"# c #1A1720",
"$ c #1B1721",
"% c #292433",
"& c #2A2534",
"* c #2D2737",
"= c #2E2838",
"- c #302A3A",
"; c #3C3449",
": c #433A52",
"> c #453C54",
", c #453D55",
"< c #463E56",
"1 c #473E57",
"2 c #4D435E",
"3 c #4D445E",
"4 c #4E445F",
"5 c #514764",
"6 c #534965",
"7 c #554A68",
"8 c #564B69",
"9 c #FDD835",
"0 c #6B5E83",
"q c #7C6D98",
"w c #7D6E99",
"e c #80709C",
"r c #8776A5",
"t c #8777A6",
"y c #8D7CAD",
"u c #8E7CAD",
"i c #9575CD",
"p c #9583B6",
"a c #9683B7",
"s c #9986BB",
"d c #A08CC4",
"f c #A48FC8",
"g c #A490C9",
"h c #A793CC",
"j c #AF9AD7",
"k c #B09BD8",
"l c #B19BD8",
"z c #B29CDA",
"x c #B39DDB",
/* pixels */
"                                                                                                ",
"                                                                                                ",
"                                                                                                ",
"                                                                                                ",
"                                                                                                ",
"                                                                                                ",
"                                                                                                ",
"                                                                                                ",
"                                                                                                ",
"                                                                                                ",
"                                                                                                ",
"                                                                                                ",
"                                       O&30eaghzzhgpe02%o                                       ",
"                                    $8tjxxxxxxxxxxxxxxxxjr7#                                    ",
"                                 X<uxxxxxxxxxxxxxxxxxxxxxxxxy>X                                 ",
"                               .4gxxxxxxxxxxxxxxxxxxxxxxxxxxxxf3.                               ",
"                              -pxxxxxxxxxxxxxxxxxxxxxxxxxxxxxxxxs;                              ",
"                            @wxxxxxxxxxxxxxxxxxxxxxxxxxxxxxxxxxxxxq+                            ",
"                           =dxxxxxxxxxxxxxxxxxxxxxxxxxxxxxxxxxxxxxxd*                           ",
"                          :kxxxxxxxxxxxxxxxxxxxxxxxxxxxxxxxxxxxxxxxxl1                          ",
"                         6zxxxxxxxxxxxxxxxxxxxxxxxxxxxxxxxxxxxxxxxxxxz5                         ",
"                        ,xxxxxxxxxxxxxxxxxxxxxxxxxxxxxxxxxxxxxxxxxxxxxz>                        ",
"                        kxxxxxxxxxxxxxxxxxxxxxxxxxxxxxxxxxxxxxxxxxxxxxxj                        ",
"                        xxxxxxxxxxxxxxxxxxxxxxxxxxxxxxxxxxxxxxxxxxxxxxxx                        ",
"                        xxxxxxxxxxxxxxxxxxxxxx9999xxxxxxxxxxxxxxxxxxxxxx                        ",
"                        xxxxxxxxxxxxxxxxxxxxxx9999xxxxxxxxxxxxxxxxxxxxxx                        ",
"                        xxxxxxxxxxxxxxxxxxxxxx9999xxxxxxxxxxxxxxxxxxxxxx                        ",
"                        xxxxxxxxxxxxxxxxxxxxxx9999xxxxxxxxxxxxxxxxxxxxxx                        ",
"                        xxxxxxxxxxxxxxxxxxxxxx9999xxxxxxxxxxxxxxxxxxxxxx                        ",
"                        xxxxxxxxxxxxxxxxxxxxxx9999xxxxxxxxxxxxxxxxxxxxxx                        ",
"                        xxxxxxxxxxxxxxxxxxxxxx9999xxxxxxxxxxxxxxxxxxxxxx                        ",
"                        xxxxxxxxxxxxxxxxxxxxxx9999xxxxxxxxxxxxxxxxxxxxxx                        ",
"                        xxxxxxxxxxxxxxxxxxxxxx9999xxxxxxxxxxxxxxxxxxxxxx                        ",
"                        xxxxxxxxxxxxxxxxxxxxxx9999xxxxxxxxxxxxxxxxxxxxxx                        ",
"                        xxxxxxxxxxxx999999999999999999999999xxxxxxxxxxxx                        ",
"                        xxxxxxxxxxxx999999999999999999999999xxxxxxxxxxxx                        ",
"                        xxxxxxxxxxxx999999999999999999999999xxxxxxxxxxxx                        ",
"                        xxxxxxxxxxxx999999999999999999999999xxxxxxxxxxxx                        ",
"                        xxxxxxxxxxxxxxxxxxxxxx9999xxxxxxxxxxxxxxxxxxxxxx                        ",
"                        xxxxxxxxxxxxxxxxxxxxxx9999xxxxxxxxxxxxxxxxxxxxxx                        ",
"                        xxxxxxxxxxxxxxxxxxxxxx9999xxxxxxxxxxxxxxxxxxxxxx                        ",
"                        xxxxxxxxxxxxxxxxxxxxxx9999xxxxxxxxxxxxxxxxxxxxxx                        ",
"                        xxxxxxxxxxxxxxxxxxxxxx9999xxxxxxxxxxxxxxxxxxxxxx                        ",
"                        xxxxxxxxxxxxxxxxxxxxxx9999xxxxxxxxxxxxxxxxxxxxxx                        ",
"                        xxxxxxxxxxxxxxxxxxxxxx9999xxxxxxxxxxxxxxxxxxxxxx                        ",
"                        xxxxxxxxxxxxxxxxxxxxxx9999xxxxxxxxxxxxxxxxxxxxxx                        ",
"                        xxxxxxxxxxxxxxxxxxxxxx9999xxxxxxxxxxxxxxxxxxxxxx                        ",
"                        xxxxxxxxxxxxxxxxxxxxxx9999xxxxxxxxxxxxxxxxxxxxxx                        ",
"                        xxxxxxxxxxxxxxxxxxxxxx9999xxxxxxxxxxxxxxxxxxxxxx                        ",
"                        xxxxxxxxxxxxxxxxxxxxxx9999xxxxxxxxxxxxxxxxxxxxxx                        ",
"                        xxxxxxxxxxxxxxxxxxxxxx9999xxxxxxxxxxxxxxxxxxxxxx                        ",
"                        xxxxxxxxxxxxxxxxxxxxxx9999xxxxxxxxxxxxxxxxxxxxxx                        ",
"                        xxxxxxxxxxxxxxxxxxxxxx9999xxxxxxxxxxxxxxxxxxxxxx                        ",
"                        xxxxxxxxxxxxxxxxxxxxxx9999xxxxxxxxxxxxxxxxxxxxxx                        ",
"                        xxxxxxxxxxxxxxxxxxxxxx9999xxxxxxxxxxxxxxxxxxxxxx                        ",
"                        xxxxxxxxxxxxxxxxxxxxxx9999xxxxxxxxxxxxxxxxxxxxxx                        ",
"                        xxxxxxxxxxxxxxxxxxxxxx9999xxxxxxxxxxxxxxxxxxxxxx                        ",
"                        xxxxxxxxxxxxxxxxxxxxxx9999xxxxxxxxxxxxxxxxxxxxxx                        ",
"                        xxxxxxxxxxxxxxxxxxxxxx9999xxxxxxxxxxxxxxxxxxxxxx                        ",
"                        xxxxxxxxxxxxxxxxxxxxxx9999xxxxxxxxxxxxxxxxxxxxxx                        ",
"                        xxxxxxxxxxxxxxxxxxxxxxxxxxxxxxxxxxxxxxxxxxxxxxxx                        ",
"                        xxxxxxxxxxxxxxxxxxxxxxxxxxxxxxxxxxxxxxxxxxxxxxxx                        ",
"                        xxxxxxxxxxxxxxxxxxxxxxxxxxxxxxxxxxxxxxxxxxxxxxxx                        ",
"                        xxxxxxxxxxxxxxxxxxxxxxxxxxxxxxxxxxxxxxxxxxxxxxxx                        ",
"                        xxxxxxxxxxxxxxxxxxxxxxxxxxxxxxxxxxxxxxxxxxxxxxxx                        ",
"                        xxxxxxxxxxxxxxxxxxxxxxxxxxxxxxxxxxxxxxxxxxxxxxxx                        ",
"                        xxxxxxxxxxxxxxxxxxxxxxxxxxxxxxxxxxxxxxxxxxxxxxxx                        ",
"                        xxxxxxxxxxxxxxxxxxxxxxxxxxxxxxxxxxxxxxxxxxxxxxxx                        ",
"                iiiiiiiiiiiiiiiiiiiiiiiiiiiiiiiiiiiiiiiiiiiiiiiiiiiiiiiiiiiiiiii                ",
"                iiiiiiiiiiiiiiiiiiiiiiiiiiiiiiiiiiiiiiiiiiiiiiiiiiiiiiiiiiiiiiii                ",
"                iiiiiiiiiiiiiiiiiiiiiiiiiiiiiiiiiiiiiiiiiiiiiiiiiiiiiiiiiiiiiiii                ",
"                iiiiiiiiiiiiiiiiiiiiiiiiiiiiiiiiiiiiiiiiiiiiiiiiiiiiiiiiiiiiiiii                ",
"                iiiiiiiiiiiiiiiiiiiiiiiiiiiiiiiiiiiiiiiiiiiiiiiiiiiiiiiiiiiiiiii                ",
"                iiiiiiiiiiiiiiiiiiiiiiiiiiiiiiiiiiiiiiiiiiiiiiiiiiiiiiiiiiiiiiii                ",
"                iiiiiiiiiiiiiiiiiiiiiiiiiiiiiiiiiiiiiiiiiiiiiiiiiiiiiiiiiiiiiiii                ",
"                iiiiiiiiiiiiiiiiiiiiiiiiiiiiiiiiiiiiiiiiiiiiiiiiiiiiiiiiiiiiiiii                ",
"            xxxxxxxxxxxxxxxxxxxxxxxxxxxxxxxxxxxxxxxxxxxxxxxxxxxxxxxxxxxxxxxxxxxxxxxx            ",
"            xxxxxxxxxxxxxxxxxxxxxxxxxxxxxxxxxxxxxxxxxxxxxxxxxxxxxxxxxxxxxxxxxxxxxxxx            ",
"            xxxxxxxxxxxxxxxxxxxxxxxxxxxxxxxxxxxxxxxxxxxxxxxxxxxxxxxxxxxxxxxxxxxxxxxx            ",
"            xxxxxxxxxxxxxxxxxxxxxxxxxxxxxxxxxxxxxxxxxxxxxxxxxxxxxxxxxxxxxxxxxxxxxxxx            ",
"            xxxxxxxxxxxxxxxxxxxxxxxxxxxxxxxxxxxxxxxxxxxxxxxxxxxxxxxxxxxxxxxxxxxxxxxx            ",
"            xxxxxxxxxxxxxxxxxxxxxxxxxxxxxxxxxxxxxxxxxxxxxxxxxxxxxxxxxxxxxxxxxxxxxxxx            ",
"            xxxxxxxxxxxxxxxxxxxxxxxxxxxxxxxxxxxxxxxxxxxxxxxxxxxxxxxxxxxxxxxxxxxxxxxx            ",
"            xxxxxxxxxxxxxxxxxxxxxxxxxxxxxxxxxxxxxxxxxxxxxxxxxxxxxxxxxxxxxxxxxxxxxxxx            ",
"                                                                                                ",
"                                                                                                ",
"                                                                                                ",
"                                                                                                ",
"                                                                                                ",
"                                                                                                ",
"                                                                                                ",
"                                                                                                ",
"                                                                                                ",
"                                                                                                ",
"                                                                                                ",
"                                                                                                "
};
