/* XPM */
static char *a15f839784b54d97a399124b60b3602e05oDFDQRWnTiftWO[] = {
/* columns rows colors chars-per-pixel */
"32 32 9 1 ",
"  c black",
". c gray50",
"X c #FFF200",
"o c #EFE4B0",
"O c #99D9EA",
"+ c #A7ECFF",
"@ c #C3C3C3",
"# c gray88",
"$ c white",
/* pixels */
"                                ",
"                                ",
"                            $   ",
"                            $   ",
"               OOOO       $$$$$ ",
"             OOO++OOO       $   ",
"            OOOO++OOOO      $   ",
"    $      OOOOOOOOOOOO         ",
"    $     OOOOOOOOO++OOO        ",
"  $$$$$   OOOOOOOOO+++OO        ",
"    $    OOOOOOOOOO+++OOO       ",
"    $    OOOOOOOOOOO+++OO       ",
"        OOOOOOOOOOOO+++OOO      ",
"      @@OOOOOOOOOOOOO++OOO@@@   ",
"    @@@@@OOOOOOOOOOOO++OOO@@@@  ",
"   @@@@@@@OOOOOOOOOOOOOOO#XX@@@ ",
"  .......@@XXOOOOOOOOO#####XX@@ ",
" ..@@@.@..XX@@@@@XX#########XX@@",
" ......@@.X@@@@@@XX##########X@@",
" .@@@@.@@.@@@@@@@XXX#########XX@",
" .@@@@.@@.@@@@@@@@XX##########X@",
" ......@@.@@@@@@@@XX##########X ",
" .@@@@.@..@@@@@@@@@XX#########  ",
" ........@@@@@@@@@@XX########   ",
"        @@@@@@@@@@@XX######     ",
"           @@@@@@@@XX##         ",
"       o                        ",
"       o                   $    ",
"     ooooo                $$$   ",
"       o                   $    ",
"       o                        ",
"                                "
};
