/* XPM */
static char *_81c18616fee433bf89cb60caecb6aa8u91B4EAyyceDg2BI[] = {
/* columns rows colors chars-per-pixel */
"32 32 6 1 ",
"  c black",
". c #916044",
"X c #B97A57",
"o c #EFE4B0",
"O c #C3C3C3",
"+ c white",
/* pixels */
"                                ",
"                                ",
"                            +   ",
"                            +   ",
"      XXXXX      XXXXXXXX +++++ ",
"     XXX.XX     XXXXXXXXX   +   ",
"     XX...X   + XXXXX...XX  +   ",
"    +XXX.XX  +++XXXXX...XX      ",
"    +XXXXXX   + XXXXX...XXX     ",
"  +++XXXX       XX.XX...XXX     ",
"    +           X...XXXXXXX     ",
"    +           XX.XXX...XX     ",
"                XXXXXX....      ",
"                XXXXXX...X      ",
"       XXXXXX        X...X      ",
"      XXXXXXX        +          ",
"    O XXXX....     +++++ XXX    ",
"   OOXXXXX....XX     +   XXXX   ",
"    OXXXXX....XX     +  X....   ",
"     X.XXXXXXXXXX       X....   ",
"     ...XXXXXXXXX     XXX....X  ",
"     X.XXXX....XX     XXXX...X  ",
"     XXXXXX....X     XXXXX...X  ",
"      XXXXX....X     XXXXXXXXX  ",
"         XXXX       XXXXXXXXXX  ",
"                   XXXX.XXXXX   ",
"       o           XXX...XXX    ",
"       o           XXXX.XXX+    ",
"     ooooo         XXXXX  +++   ",
"       o                   +    ",
"       o                        ",
"                                "
};
