/* XPM */
static char *_9f0551873564a6efaab0408df63430aStF0vsShUITEjBWb[] = {
/* columns rows colors chars-per-pixel */
"80 80 48 1 ",
"  c black",
". c #080000",
"X c #0E0000",
"o c #000011",
"O c #0E0011",
"+ c #00001F",
"@ c #08001F",
"# c #082800",
"$ c #0E2800",
"% c #142800",
"& c #002811",
"* c #0E2811",
"= c #00281F",
"- c #08281F",
"; c #00282B",
": c #184700",
"> c #144711",
", c #184711",
"< c #18471F",
"1 c #1D6411",
"2 c #18641F",
"3 c #1D7F1F",
"4 c #227F1F",
"5 c #004736",
"6 c #084736",
"7 c #18642B",
"8 c #086436",
"9 c #0E6436",
"0 c #146436",
"q c #1D7F36",
"w c #227F2B",
"e c #086442",
"r c #0E7F42",
"t c #0E7F4C",
"y c #147F42",
"u c #1D9836",
"i c #22982B",
"p c #229836",
"a c #22B136",
"s c #1D9842",
"d c #14984C",
"f c #18984C",
"g c #1D984C",
"h c #229842",
"j c #18B14C",
"k c #1DB14C",
"l c #22B142",
"z c #22B14C",
/* pixels */
"                                                                                ",
"                                                                                ",
"                                                                                ",
"                                                                                ",
"                                                                                ",
"                                                                                ",
"                                                                                ",
"                                                                                ",
"                                                                                ",
"                                                                                ",
"                                                                                ",
"                                                                                ",
"                                                                                ",
"             ezl%      +fz4     o9szzzlu>       tzi.       ;kl%                 ",
"             +jz4      ezl%    8kzzzzzzzzp$     tzi.       ;kl%                 ",
"              ezl%    +jz4    ezzp>   &rzzaX    tzi.       ;kl%                 ",
"              +jz4    ezl%   5zz4.      6zz4    tzi.       ;kl%                 ",
"               ezl%  +jz4   odzaX        tzl%   tzi.       ;kl%                 ",
"               +jz4  5zl%   ;kz1         ;kz1   tzi.       ;kl%                 ",
"                ezl%odz4    5zl%         +jz4   tzi.       ;kl%                 ",
"                +jz15zaX    ezaX         odz4   tzi.       ;kl%                 ",
"                 ezlgz1     ezaX         odzi.  tzi.       ;kl%                 ",
"                 +jzzaX     tzaX         odzi.  tzi.       ;kl%                 ",
"                  ezz1      ezaX         odz4   tzi.       ;kl%                 ",
"                  ;kz:      ezl%         +jz1   tzi.       ;kl%                 ",
"                  ;kz:      ;kz1         5zz:   ezaX       5zl%                 ",
"                  ;kz:      +jzi.       odzaX   5zl%       ezaX                 ",
"                  ;kz:       ezz1       ezz1    +jzi.     ;kz1                  ",
"                  ;kz:       odzzu*   -yzz4      ezzp*  o6kzaX                  ",
"                  ;kz:        oyzzzzzzzzz3.       ezzzzzzzzp$                   ",
"                  ;kz:          -ygzzzh2#          =ykzzzu>                     ",
"                                                                                ",
"                                                                                ",
"                                                                                ",
"                                                                                ",
"                                                                                ",
"                                                                                ",
"                                                                                ",
"                                                                                ",
"                                                                                ",
"                                                                                ",
"                                                                                ",
"                                                                                ",
"                                                                                ",
"                                                                                ",
"                                                                                ",
"                                                                                ",
"                                                                                ",
"                                                                                ",
"       ;kz1       ezl%       ezi.     o9szzzlu>       6zzpX      +jz:           ",
"       odz4      odzz1      odz4     8kzzzzzzzzp$     ezzz4      +jz:           ",
"        ezaX     +jzzi.     +jz:    ezzp>   &rzzaX    ezzzl%     +jz:           ",
"        5zz:     5zzzaX     5zl%   5zz4.      6zz4    ezwdzi.    +jz:           ",
"        +jz1     ezqjz:     tzi.  odzaX        tzl%   ez45zz:    +jz:           ",
"         tzi.   odz,dz4    odz1   ;kz1         ;kz1   ez4odzaX   +jz:           ",
"         5zl%   +jaXezi.   ;kl%   5zl%         +jz4   ez4 ;kz1   +jz:           ",
"         ;kz:   5zi.;kl%   ezi.   ezaX         odz4   ezi. tzaX  +jz:           ",
"         odz4   tz1 +jz1   tz4    ezaX         odzi.  ezi. ;kz4  +jz:           ",
"          ezaX odz:  tz4  +jz:    tzaX         odzi.  ezi.  ezl% +jz:           ",
"          ;kl% ;kaX  5zaX ;kaX    ezaX         odz4   ezi.  +jzi.+jz:           ",
"          +jz1 5z4   +jz: ez4     ezl%         +jz1   ezi.   5zz:+jz:           ",
"           tzi.tz1   odz1odz1     ;kz1         5zz:   ezi.   odzi@jz:           ",
"           5zaOdl%    ezi@jl%     +jzi.       odzaX   ezi.    5zz<jz:           ",
"           +jz7kaX    ;kl0zi.      ezz1       ezz1    ezi.     tzhkz:           ",
"            tzzz4     +jzzz1       odzzu*   -yzz4     ezi.     ;kzzz:           ",
"            ezzz1      tzzl%        oyzzzzzzzzz3.     ezi.      ezzz:           ",
"            ;kzl%      5zziX          -ygzzzh2#       ezi.      odzl%           ",
"                                                                                ",
"                                                                                ",
"                                                                                ",
"                                                                                ",
"                                                                                ",
"                                                                                ",
"                                                                                ",
"                                                                                ",
"                                                                                ",
"                                                                                ",
"                                                                                ",
"                                                                                ",
"                                                                                "
};
